STARTFONT 2.1
FONT -Adobe-Times-Bold-I-Normal--10-100-75-75-P-57-ISO8859-2
SIZE 10 75 75
FONTBOUNDINGBOX 16 13 -2 -3
COMMENT $XConsortium: timBI10.bdf,v 1.14 95/01/26 18:06:13 gildea Exp $
COMMENT 
COMMENT +
COMMENT  Copyright 1984-1989, 1994 Adobe Systems Incorporated.
COMMENT  Copyright 1988, 1994 Digital Equipment Corporation.
COMMENT
COMMENT  Adobe is a trademark of Adobe Systems Incorporated which may be
COMMENT  registered in certain jurisdictions.
COMMENT  Permission to use these trademarks is hereby granted only in
COMMENT  association with the images described in this file.
COMMENT
COMMENT  Permission to use, copy, modify, distribute and sell this software
COMMENT  and its documentation for any purpose and without fee is hereby
COMMENT  granted, provided that the above copyright notices appear in all
COMMENT  copies and that both those copyright notices and this permission
COMMENT  notice appear in supporting documentation, and that the names of
COMMENT  Adobe Systems and Digital Equipment Corporation not be used in
COMMENT  advertising or publicity pertaining to distribution of the software
COMMENT  without specific, written prior permission.  Adobe Systems and
COMMENT  Digital Equipment Corporation make no representations about the
COMMENT  suitability of this software for any purpose.  It is provided "as
COMMENT  is" without express or implied warranty.
COMMENT -
COMMENT  
COMMENT  Translation to ISO8859-2 by Cub Soft;  Petr.Kolar@vslib.cz
COMMENT  
STARTPROPERTIES 28
FOUNDRY "Adobe"
FAMILY_NAME "Times"
WEIGHT_NAME "Bold"
SLANT "I"
SETWIDTH_NAME "Normal"
ADD_STYLE_NAME ""
PIXEL_SIZE 10
POINT_SIZE 100
RESOLUTION_X 75
RESOLUTION_Y 75
SPACING "P"
AVERAGE_WIDTH 57
CHARSET_REGISTRY "ISO8859"
CHARSET_ENCODING "2"
CAP_HEIGHT 7
X_HEIGHT 5
FONT_ASCENT 9
FONT_DESCENT 3
FACE_NAME "Times Bold Italic"

STARTCHAR space
ENCODING 32
SWIDTH 250 0
DWIDTH 2 0
BBX 1 1 0 0
BITMAP
00
ENDCHAR
STARTCHAR exclam
ENCODING 33
SWIDTH 389 0
DWIDTH 6 0
BBX 4 7 1 0
BITMAP
30
30
60
40
00
c0
c0
ENDCHAR
STARTCHAR quotedbl
ENCODING 34
SWIDTH 555 0
DWIDTH 6 0
BBX 3 3 2 4
BITMAP
a0
a0
a0
ENDCHAR
STARTCHAR numbersign
ENCODING 35
SWIDTH 500 0
DWIDTH 8 0
BBX 7 7 1 0
BITMAP
14
14
7e
28
fc
50
50
ENDCHAR
STARTCHAR dollar
ENCODING 36
SWIDTH 500 0
DWIDTH 5 0
BBX 4 7 1 0
BITMAP
20
70
d0
60
b0
e0
40
ENDCHAR
STARTCHAR percent
ENCODING 37
SWIDTH 833 0
DWIDTH 11 0
BBX 10 7 1 0
BITMAP
6600
de00
d400
6d80
1b40
3340
3180
ENDCHAR
STARTCHAR ampersand
ENCODING 38
SWIDTH 778 0
DWIDTH 8 0
BBX 8 7 0 0
BITMAP
1c
34
38
77
da
cc
76
ENDCHAR
STARTCHAR apostrophe
ENCODING 39
SWIDTH 333 0
DWIDTH 4 0
BBX 2 3 2 4
BITMAP
c0
40
80
ENDCHAR
STARTCHAR parenleft
ENCODING 40
SWIDTH 333 0
DWIDTH 6 0
BBX 5 9 1 -2
BITMAP
08
30
60
c0
c0
c0
c0
60
20
ENDCHAR
STARTCHAR parenright
ENCODING 41
SWIDTH 333 0
DWIDTH 6 0
BBX 5 9 0 -2
BITMAP
20
30
18
18
18
18
30
60
80
ENDCHAR
STARTCHAR asterisk
ENCODING 42
SWIDTH 500 0
DWIDTH 7 0
BBX 5 5 1 3
BITMAP
20
a8
70
a8
20
ENDCHAR
STARTCHAR plus
ENCODING 43
SWIDTH 570 0
DWIDTH 7 0
BBX 5 5 1 0
BITMAP
20
20
f8
20
20
ENDCHAR
STARTCHAR comma
ENCODING 44
SWIDTH 250 0
DWIDTH 4 0
BBX 3 3 0 -1
BITMAP
60
60
c0
ENDCHAR
STARTCHAR minus
ENCODING 45
SWIDTH 606 0
DWIDTH 7 0
BBX 5 1 1 2
BITMAP
f8
ENDCHAR
STARTCHAR period
ENCODING 46
SWIDTH 250 0
DWIDTH 4 0
BBX 2 2 1 0
BITMAP
c0
c0
ENDCHAR
STARTCHAR slash
ENCODING 47
SWIDTH 278 0
DWIDTH 5 0
BBX 5 7 0 0
BITMAP
18
10
30
20
60
40
c0
ENDCHAR
STARTCHAR zero
ENCODING 48
SWIDTH 500 0
DWIDTH 5 0
BBX 5 7 0 0
BITMAP
30
68
c8
d8
98
b0
60
ENDCHAR
STARTCHAR one
ENCODING 49
SWIDTH 500 0
DWIDTH 5 0
BBX 5 7 0 0
BITMAP
38
18
30
30
60
60
f0
ENDCHAR
STARTCHAR two
ENCODING 50
SWIDTH 500 0
DWIDTH 5 0
BBX 5 7 0 0
BITMAP
38
58
18
30
60
e8
f0
ENDCHAR
STARTCHAR three
ENCODING 51
SWIDTH 500 0
DWIDTH 5 0
BBX 5 7 0 0
BITMAP
38
68
18
30
18
b8
f0
ENDCHAR
STARTCHAR four
ENCODING 52
SWIDTH 500 0
DWIDTH 5 0
BBX 5 7 0 0
BITMAP
18
38
58
b0
f8
30
30
ENDCHAR
STARTCHAR five
ENCODING 53
SWIDTH 500 0
DWIDTH 5 0
BBX 5 7 0 0
BITMAP
38
38
60
70
30
b0
e0
ENDCHAR
STARTCHAR six
ENCODING 54
SWIDTH 500 0
DWIDTH 5 0
BBX 5 7 0 0
BITMAP
18
70
60
f0
d0
d0
60
ENDCHAR
STARTCHAR seven
ENCODING 55
SWIDTH 500 0
DWIDTH 5 0
BBX 5 7 0 0
BITMAP
78
78
18
30
60
c0
c0
ENDCHAR
STARTCHAR eight
ENCODING 56
SWIDTH 500 0
DWIDTH 5 0
BBX 5 7 0 0
BITMAP
30
68
78
70
d8
d8
70
ENDCHAR
STARTCHAR nine
ENCODING 57
SWIDTH 500 0
DWIDTH 5 0
BBX 5 7 0 0
BITMAP
30
58
58
78
30
70
c0
ENDCHAR
STARTCHAR colon
ENCODING 58
SWIDTH 333 0
DWIDTH 3 0
BBX 3 5 0 0
BITMAP
60
60
00
c0
c0
ENDCHAR
STARTCHAR semicolon
ENCODING 59
SWIDTH 333 0
DWIDTH 5 0
BBX 4 6 0 -1
BITMAP
30
30
00
60
60
c0
ENDCHAR
STARTCHAR less
ENCODING 60
SWIDTH 570 0
DWIDTH 6 0
BBX 4 5 1 0
BITMAP
30
60
c0
60
30
ENDCHAR
STARTCHAR equal
ENCODING 61
SWIDTH 570 0
DWIDTH 7 0
BBX 5 3 1 1
BITMAP
f8
00
f8
ENDCHAR
STARTCHAR greater
ENCODING 62
SWIDTH 570 0
DWIDTH 6 0
BBX 4 5 1 0
BITMAP
c0
60
30
60
c0
ENDCHAR
STARTCHAR question
ENCODING 63
SWIDTH 500 0
DWIDTH 5 0
BBX 4 7 1 0
BITMAP
f0
b0
60
40
00
c0
c0
ENDCHAR
STARTCHAR at
ENCODING 64
SWIDTH 832 0
DWIDTH 11 0
BBX 9 9 1 -2
BITMAP
1e00
7300
4d80
de80
b680
b580
df00
6000
3e00
ENDCHAR
STARTCHAR A
ENCODING 65
SWIDTH 667 0
DWIDTH 6 0
BBX 7 7 -1 0
BITMAP
0c
1c
14
2c
7c
4c
de
ENDCHAR
STARTCHAR B
ENCODING 66
SWIDTH 667 0
DWIDTH 7 0
BBX 8 7 -1 0
BITMAP
3e
1b
33
3c
66
66
fc
ENDCHAR
STARTCHAR C
ENCODING 67
SWIDTH 667 0
DWIDTH 7 0
BBX 7 7 0 0
BITMAP
3e
66
c0
c0
c0
ec
78
ENDCHAR
STARTCHAR D
ENCODING 68
SWIDTH 722 0
DWIDTH 7 0
BBX 8 7 -1 0
BITMAP
3e
1b
33
33
67
6e
f8
ENDCHAR
STARTCHAR E
ENCODING 69
SWIDTH 667 0
DWIDTH 7 0
BBX 8 7 -1 0
BITMAP
3f
1b
30
3c
60
66
fc
ENDCHAR
STARTCHAR F
ENCODING 70
SWIDTH 667 0
DWIDTH 7 0
BBX 8 7 -1 0
BITMAP
3f
1b
30
3c
60
60
f0
ENDCHAR
STARTCHAR G
ENCODING 71
SWIDTH 722 0
DWIDTH 7 0
BBX 7 7 0 0
BITMAP
3e
66
c0
de
cc
ec
78
ENDCHAR
STARTCHAR H
ENCODING 72
SWIDTH 778 0
DWIDTH 8 0
BBX 8 7 0 0
BITMAP
73
33
66
7e
66
cc
ce
ENDCHAR
STARTCHAR I
ENCODING 73
SWIDTH 389 0
DWIDTH 4 0
BBX 6 7 -1 0
BITMAP
3c
18
30
30
60
60
f0
ENDCHAR
STARTCHAR J
ENCODING 74
SWIDTH 500 0
DWIDTH 5 0
BBX 7 8 -1 -1
BITMAP
1e
0c
18
18
30
30
b0
e0
ENDCHAR
STARTCHAR K
ENCODING 75
SWIDTH 667 0
DWIDTH 7 0
BBX 9 7 -1 0
BITMAP
3b80
1b00
3600
3c00
6c00
6600
f700
ENDCHAR
STARTCHAR L
ENCODING 76
SWIDTH 611 0
DWIDTH 6 0
BBX 6 7 -1 0
BITMAP
3c
18
30
30
60
64
fc
ENDCHAR
STARTCHAR M
ENCODING 77
SWIDTH 889 0
DWIDTH 10 0
BBX 11 7 -1 0
BITMAP
38e0
19c0
39c0
2a80
6d80
6d80
ebc0
ENDCHAR
STARTCHAR N
ENCODING 78
SWIDTH 722 0
DWIDTH 8 0
BBX 10 7 -1 0
BITMAP
3bc0
1980
3d00
2d00
2f00
6600
f600
ENDCHAR
STARTCHAR O
ENCODING 79
SWIDTH 722 0
DWIDTH 7 0
BBX 7 7 0 0
BITMAP
1c
76
66
c6
cc
dc
70
ENDCHAR
STARTCHAR P
ENCODING 80
SWIDTH 611 0
DWIDTH 6 0
BBX 7 7 -1 0
BITMAP
3e
1a
36
3c
60
60
f0
ENDCHAR
STARTCHAR Q
ENCODING 81
SWIDTH 722 0
DWIDTH 7 0
BBX 7 9 0 -2
BITMAP
1c
76
66
c6
cc
dc
70
64
f8
ENDCHAR
STARTCHAR R
ENCODING 82
SWIDTH 667 0
DWIDTH 7 0
BBX 8 7 -1 0
BITMAP
3e
1b
33
3e
6c
6c
f6
ENDCHAR
STARTCHAR S
ENCODING 83
SWIDTH 556 0
DWIDTH 6 0
BBX 6 7 0 0
BITMAP
3c
6c
60
30
18
d8
f0
ENDCHAR
STARTCHAR T
ENCODING 84
SWIDTH 611 0
DWIDTH 6 0
BBX 7 7 0 0
BITMAP
7e
da
18
30
30
60
f0
ENDCHAR
STARTCHAR U
ENCODING 85
SWIDTH 722 0
DWIDTH 8 0
BBX 9 7 0 0
BITMAP
7b80
3300
6600
6600
cc00
cc00
7800
ENDCHAR
STARTCHAR V
ENCODING 86
SWIDTH 667 0
DWIDTH 7 0
BBX 8 7 0 0
BITMAP
f7
66
6c
68
68
70
60
ENDCHAR
STARTCHAR W
ENCODING 87
SWIDTH 889 0
DWIDTH 9 0
BBX 10 7 0 0
BITMAP
edc0
6c80
6d00
6d00
6e00
3600
2400
ENDCHAR
STARTCHAR X
ENCODING 88
SWIDTH 667 0
DWIDTH 7 0
BBX 9 7 -1 0
BITMAP
3b80
1b00
1a00
0c00
3c00
6c00
ee00
ENDCHAR
STARTCHAR Y
ENCODING 89
SWIDTH 611 0
DWIDTH 6 0
BBX 8 7 -1 0
BITMAP
77
36
34
38
30
60
f0
ENDCHAR
STARTCHAR Z
ENCODING 90
SWIDTH 611 0
DWIDTH 6 0
BBX 8 7 -1 0
BITMAP
3f
36
0c
18
30
6c
fc
ENDCHAR
STARTCHAR bracketleft
ENCODING 91
SWIDTH 333 0
DWIDTH 5 0
BBX 5 9 0 -2
BITMAP
38
30
30
60
60
60
c0
c0
e0
ENDCHAR
STARTCHAR backslash
ENCODING 92
SWIDTH 278 0
DWIDTH 5 0
BBX 5 7 0 0
BITMAP
c0
40
60
20
30
10
18
ENDCHAR
STARTCHAR bracketright
ENCODING 93
SWIDTH 333 0
DWIDTH 5 0
BBX 5 9 0 -2
BITMAP
38
18
18
30
30
30
60
60
e0
ENDCHAR
STARTCHAR asciicircum
ENCODING 94
SWIDTH 570 0
DWIDTH 7 0
BBX 5 4 1 3
BITMAP
20
70
d8
88
ENDCHAR
STARTCHAR underscore
ENCODING 95
SWIDTH 500 0
DWIDTH 5 0
BBX 5 1 0 -2
BITMAP
f8
ENDCHAR
STARTCHAR grave
ENCODING 96
SWIDTH 333 0
DWIDTH 4 0
BBX 3 2 1 6
BITMAP
c0
20
ENDCHAR
STARTCHAR a
ENCODING 97
SWIDTH 500 0
DWIDTH 5 0
BBX 5 5 0 0
BITMAP
38
68
c8
d0
78
ENDCHAR
STARTCHAR b
ENCODING 98
SWIDTH 500 0
DWIDTH 5 0
BBX 5 7 0 0
BITMAP
70
30
38
68
48
d0
e0
ENDCHAR
STARTCHAR c
ENCODING 99
SWIDTH 444 0
DWIDTH 5 0
BBX 5 5 0 0
BITMAP
30
68
c0
d0
60
ENDCHAR
STARTCHAR d
ENCODING 100
SWIDTH 500 0
DWIDTH 5 0
BBX 6 7 0 0
BITMAP
1c
0c
38
68
c8
d8
68
ENDCHAR
STARTCHAR e
ENCODING 101
SWIDTH 444 0
DWIDTH 5 0
BBX 5 5 0 0
BITMAP
38
48
f0
c8
70
ENDCHAR
STARTCHAR f
ENCODING 102
SWIDTH 333 0
DWIDTH 4 0
BBX 7 10 -1 -3
BITMAP
0e
18
3c
10
10
30
30
20
a0
c0
ENDCHAR
STARTCHAR g
ENCODING 103
SWIDTH 500 0
DWIDTH 4 0
BBX 6 8 -1 -3
BITMAP
3c
68
68
30
30
d8
98
70
ENDCHAR
STARTCHAR h
ENCODING 104
SWIDTH 556 0
DWIDTH 5 0
BBX 6 7 -1 0
BITMAP
70
10
38
6c
4c
48
d8
ENDCHAR
STARTCHAR i
ENCODING 105
SWIDTH 278 0
DWIDTH 3 0
BBX 3 7 0 0
BITMAP
60
00
e0
60
40
c0
c0
ENDCHAR
STARTCHAR j
ENCODING 106
SWIDTH 278 0
DWIDTH 3 0
BBX 5 10 -2 -3
BITMAP
18
00
38
18
10
30
30
20
e0
c0
ENDCHAR
STARTCHAR k
ENCODING 107
SWIDTH 500 0
DWIDTH 5 0
BBX 6 7 0 0
BITMAP
70
20
2c
78
70
d0
d8
ENDCHAR
STARTCHAR l
ENCODING 108
SWIDTH 278 0
DWIDTH 3 0
BBX 4 7 0 0
BITMAP
30
30
20
60
40
c0
e0
ENDCHAR
STARTCHAR m
ENCODING 109
SWIDTH 778 0
DWIDTH 7 0
BBX 7 5 0 0
BITMAP
f6
3e
6a
54
d6
ENDCHAR
STARTCHAR n
ENCODING 110
SWIDTH 556 0
DWIDTH 5 0
BBX 5 5 0 0
BITMAP
d8
78
48
d0
d8
ENDCHAR
STARTCHAR o
ENCODING 111
SWIDTH 500 0
DWIDTH 5 0
BBX 5 5 0 0
BITMAP
30
48
d8
90
60
ENDCHAR
STARTCHAR p
ENCODING 112
SWIDTH 500 0
DWIDTH 5 0
BBX 7 8 -2 -3
BITMAP
3c
12
36
24
38
20
60
f0
ENDCHAR
STARTCHAR q
ENCODING 113
SWIDTH 500 0
DWIDTH 5 0
BBX 5 8 0 -3
BITMAP
38
68
c8
d0
70
20
60
f0
ENDCHAR
STARTCHAR r
ENCODING 114
SWIDTH 389 0
DWIDTH 4 0
BBX 5 5 0 0
BITMAP
68
70
60
40
c0
ENDCHAR
STARTCHAR s
ENCODING 115
SWIDTH 389 0
DWIDTH 4 0
BBX 4 5 0 0
BITMAP
70
c0
60
30
e0
ENDCHAR
STARTCHAR t
ENCODING 116
SWIDTH 278 0
DWIDTH 4 0
BBX 5 6 0 0
BITMAP
30
f8
60
c0
d0
60
ENDCHAR
STARTCHAR u
ENCODING 117
SWIDTH 556 0
DWIDTH 5 0
BBX 5 5 0 0
BITMAP
e8
48
d0
d0
78
ENDCHAR
STARTCHAR v
ENCODING 118
SWIDTH 444 0
DWIDTH 4 0
BBX 4 5 0 0
BITMAP
d0
d0
d0
60
40
ENDCHAR
STARTCHAR w
ENCODING 119
SWIDTH 667 0
DWIDTH 7 0
BBX 7 5 0 0
BITMAP
ea
6a
6c
7c
28
ENDCHAR
STARTCHAR x
ENCODING 120
SWIDTH 500 0
DWIDTH 4 0
BBX 6 5 -1 0
BITMAP
6c
38
30
70
d8
ENDCHAR
STARTCHAR y
ENCODING 121
SWIDTH 444 0
DWIDTH 5 0
BBX 5 7 0 -2
BITMAP
e8
68
68
30
20
a0
c0
ENDCHAR
STARTCHAR z
ENCODING 122
SWIDTH 389 0
DWIDTH 4 0
BBX 5 5 0 0
BITMAP
78
d0
20
50
f0
ENDCHAR
STARTCHAR braceleft
ENCODING 123
SWIDTH 348 0
DWIDTH 5 0
BBX 6 9 0 -2
BITMAP
1c
30
30
60
c0
60
60
60
30
ENDCHAR
STARTCHAR bar
ENCODING 124
SWIDTH 220 0
DWIDTH 3 0
BBX 1 7 1 0
BITMAP
80
80
80
80
80
80
80
ENDCHAR
STARTCHAR braceright
ENCODING 125
SWIDTH 348 0
DWIDTH 5 0
BBX 6 9 -1 -2
BITMAP
30
18
18
18
0c
18
30
30
e0
ENDCHAR
STARTCHAR asciitilde
ENCODING 126
SWIDTH 570 0
DWIDTH 6 0
BBX 6 2 0 2
BITMAP
6c
b8
ENDCHAR
STARTCHAR nobreakspace
ENCODING 160
SWIDTH 250 0
DWIDTH 2 0
BBX 1 1 0 0
BITMAP
00
ENDCHAR
STARTCHAR Aogonek
ENCODING 161
SWIDTH 667 0
DWIDTH 6 0
BBX 7 10 -1 -3
BITMAP
0c
1c
14
2c
7c
4c
de
20
28
18
ENDCHAR
STARTCHAR breve
ENCODING 162
SWIDTH 333 0
DWIDTH 4 0
BBX 3 2 1 6
BITMAP
a0
e0
ENDCHAR
STARTCHAR Lstroke
ENCODING 163
SWIDTH 611 0
DWIDTH 6 0
BBX 6 7 -1 0
BITMAP
3c
18
34
78
a0
64
fc
ENDCHAR
STARTCHAR currency
ENCODING 164
SWIDTH 500 0
DWIDTH 7 0
BBX 5 5 1 1
BITMAP
d8
70
50
70
d8
ENDCHAR
STARTCHAR Lcaron
ENCODING 165
SWIDTH 864 0
DWIDTH 9 0
BBX 9 8 -1 0
BITMAP
0180
3c80
1900
3000
3000
6000
6400
fc00
ENDCHAR
STARTCHAR Sacute
ENCODING 166
SWIDTH 556 0
DWIDTH 6 0
BBX 6 10 0 0
BITMAP
0c
10
00
3c
6c
60
30
18
d8
f0
ENDCHAR
STARTCHAR section
ENCODING 167
SWIDTH 500 0
DWIDTH 5 0
BBX 7 9 -1 -2
BITMAP
1c
26
70
58
6c
34
18
c8
f0
ENDCHAR
STARTCHAR diaeresis
ENCODING 168
SWIDTH 333 0
DWIDTH 5 0
BBX 5 1 1 6
BITMAP
d8
ENDCHAR
STARTCHAR Scaron
ENCODING 169
SWIDTH 556 0
DWIDTH 6 0
BBX 6 10 0 0
BITMAP
28
10
00
3c
6c
60
30
18
d8
f0
ENDCHAR
STARTCHAR Scedilla
ENCODING 170
SWIDTH 556 0
DWIDTH 6 0
BBX 6 10 0 -3
BITMAP
3c
6c
60
30
18
d8
f0
18
48
30
ENDCHAR
STARTCHAR Tcaron
ENCODING 171
SWIDTH 611 0
DWIDTH 6 0
BBX 7 10 0 0
BITMAP
28
10
00
7e
da
18
30
30
60
f0
ENDCHAR
STARTCHAR Zacute
ENCODING 172
SWIDTH 611 0
DWIDTH 6 0
BBX 8 10 -1 0
BITMAP
06
08
00
3f
36
0c
18
30
6c
fc
ENDCHAR
STARTCHAR hyphen
ENCODING 173
SWIDTH 333 0
DWIDTH 3 0
BBX 3 1 0 2
BITMAP
e0
ENDCHAR
STARTCHAR Zcaron
ENCODING 174
SWIDTH 611 0
DWIDTH 6 0
BBX 8 10 -1 0
BITMAP
14
08
00
3f
36
0c
18
30
6c
fc
ENDCHAR
STARTCHAR Zabovedot
ENCODING 175
SWIDTH 611 0
DWIDTH 6 0
BBX 8 10 -1 0
BITMAP
08
08
00
3f
36
0c
18
30
6c
fc
ENDCHAR
STARTCHAR degree
ENCODING 176
SWIDTH 400 0
DWIDTH 4 0
BBX 4 4 0 3
BITMAP
60
90
90
60
ENDCHAR
STARTCHAR aogonek
ENCODING 177
SWIDTH 500 0
DWIDTH 5 0
BBX 5 8 0 -3
BITMAP
38
68
c8
d0
78
40
50
30
ENDCHAR
STARTCHAR ogonek
ENCODING 178
SWIDTH 333 0
DWIDTH 3 0
BBX 3 3 0 -3
BITMAP
80
a0
60
ENDCHAR
STARTCHAR lstroke
ENCODING 179
SWIDTH 278 0
DWIDTH 3 0
BBX 4 7 0 0
BITMAP
30
20
70
e0
40
c0
e0
ENDCHAR
STARTCHAR acute
ENCODING 180
SWIDTH 333 0
DWIDTH 4 0
BBX 3 2 1 5
BITMAP
60
80
ENDCHAR
STARTCHAR lcaron
ENCODING 181
SWIDTH 576 0
DWIDTH 6 0
BBX 7 8 0 0
BITMAP
06
32
34
20
60
40
c0
e0
ENDCHAR
STARTCHAR sacute
ENCODING 182
SWIDTH 389 0
DWIDTH 4 0
BBX 4 8 0 0
BITMAP
30
40
00
70
c0
60
30
e0
ENDCHAR
STARTCHAR caron
ENCODING 183
SWIDTH 333 0
DWIDTH 4 0
BBX 3 2 1 5
BITMAP
a0
40
ENDCHAR
STARTCHAR cedilla
ENCODING 184
SWIDTH 333 0
DWIDTH 3 0
BBX 4 3 -2 -3
BITMAP
30
90
60
ENDCHAR
STARTCHAR scaron
ENCODING 185
SWIDTH 389 0
DWIDTH 4 0
BBX 4 8 0 0
BITMAP
a0
40
00
70
c0
60
30
e0
ENDCHAR
STARTCHAR scedilla
ENCODING 186
SWIDTH 389 0
DWIDTH 4 0
BBX 4 8 0 -3
BITMAP
70
c0
60
30
e0
30
90
60
ENDCHAR
STARTCHAR tcaron
ENCODING 187
SWIDTH 278 0
DWIDTH 4 0
BBX 5 9 0 0
BITMAP
60
20
40
30
f8
60
c0
d0
60
ENDCHAR
STARTCHAR zacute
ENCODING 188
SWIDTH 389 0
DWIDTH 4 0
BBX 5 8 0 0
BITMAP
18
20
00
78
d0
20
50
f0
ENDCHAR
STARTCHAR doubleacute
ENCODING 189
SWIDTH 333 0
DWIDTH 5 0
BBX 4 2 1 6
BITMAP
50
a0
ENDCHAR
STARTCHAR zcaron
ENCODING 190
SWIDTH 389 0
DWIDTH 4 0
BBX 5 8 0 0
BITMAP
50
20
00
78
d0
20
50
f0
ENDCHAR
STARTCHAR zabovedot
ENCODING 191
SWIDTH 389 0
DWIDTH 4 0
BBX 5 8 0 0
BITMAP
20
20
00
78
d0
20
50
f0
ENDCHAR
STARTCHAR Racute
ENCODING 192
SWIDTH 667 0
DWIDTH 7 0
BBX 8 10 -1 0
BITMAP
06
08
00
3e
1b
33
3e
6c
6c
f6
ENDCHAR
STARTCHAR Aacute
ENCODING 193
SWIDTH 667 0
DWIDTH 6 0
BBX 8 10 -1 0
BITMAP
03
04
00
0c
1c
14
2c
7c
4c
de
ENDCHAR
STARTCHAR Acircumflex
ENCODING 194
SWIDTH 667 0
DWIDTH 6 0
BBX 7 10 -1 0
BITMAP
04
0a
00
0c
1c
14
2c
7c
4c
de
ENDCHAR
STARTCHAR Abreve
ENCODING 195
SWIDTH 667 0
DWIDTH 6 0
BBX 7 10 -1 0
BITMAP
14
1c
00
0c
1c
14
2c
7c
4c
de
ENDCHAR
STARTCHAR Adiaeresis
ENCODING 196
SWIDTH 667 0
DWIDTH 6 0
BBX 7 10 -1 0
BITMAP
0a
0a
00
0c
1c
14
2c
7c
4c
de
ENDCHAR
STARTCHAR Lacute
ENCODING 197
SWIDTH 611 0
DWIDTH 6 0
BBX 6 10 -1 0
BITMAP
0c
10
00
3c
18
30
30
60
64
fc
ENDCHAR
STARTCHAR Cacute
ENCODING 198
SWIDTH 667 0
DWIDTH 7 0
BBX 7 10 0 0
BITMAP
0c
10
00
3e
66
c0
c0
c0
ec
78
ENDCHAR
STARTCHAR Ccedilla
ENCODING 199
SWIDTH 667 0
DWIDTH 7 0
BBX 7 10 0 -3
BITMAP
3e
66
c0
c0
c0
ec
78
30
90
60
ENDCHAR
STARTCHAR Ccaron
ENCODING 200
SWIDTH 667 0
DWIDTH 7 0
BBX 7 10 0 0
BITMAP
28
10
00
3e
66
c0
c0
c0
ec
78
ENDCHAR
STARTCHAR Eacute
ENCODING 201
SWIDTH 667 0
DWIDTH 7 0
BBX 8 10 -1 0
BITMAP
03
04
00
3f
1b
30
3c
60
66
fc
ENDCHAR
STARTCHAR Eogonek
ENCODING 202
SWIDTH 667 0
DWIDTH 7 0
BBX 8 10 -1 -3
BITMAP
3f
1b
30
3c
60
66
fc
20
28
18
ENDCHAR
STARTCHAR Ediaeresis
ENCODING 203
SWIDTH 667 0
DWIDTH 7 0
BBX 8 10 -1 0
BITMAP
0a
0a
00
3f
1b
30
3c
60
66
fc
ENDCHAR
STARTCHAR Ecaron
ENCODING 204
SWIDTH 667 0
DWIDTH 7 0
BBX 8 10 -1 0
BITMAP
14
08
00
3f
1b
30
3c
60
66
fc
ENDCHAR
STARTCHAR Iacute
ENCODING 205
SWIDTH 389 0
DWIDTH 4 0
BBX 7 10 -1 0
BITMAP
06
08
00
3c
18
30
30
60
60
f0
ENDCHAR
STARTCHAR Icircumflex
ENCODING 206
SWIDTH 389 0
DWIDTH 4 0
BBX 6 10 -1 0
BITMAP
08
14
00
3c
18
30
30
60
60
f0
ENDCHAR
STARTCHAR Dcaron
ENCODING 207
SWIDTH 722 0
DWIDTH 7 0
BBX 8 10 -1 0
BITMAP
14
08
00
3e
1b
33
33
67
6e
f8
ENDCHAR
STARTCHAR Dstroke
ENCODING 208
SWIDTH 722 0
DWIDTH 7 0
BBX 8 7 -1 0
BITMAP
3e
1b
33
7b
27
6e
f8
ENDCHAR
STARTCHAR Nacute
ENCODING 209
SWIDTH 722 0
DWIDTH 8 0
BBX 10 10 -1 0
BITMAP
0300
0400
0000
3bc0
1980
3d00
2d00
2f00
6600
f600
ENDCHAR
STARTCHAR Ncaron
ENCODING 210
SWIDTH 722 0
DWIDTH 8 0
BBX 10 10 -1 0
BITMAP
0a00
0400
0000
3bc0
1980
3d00
2d00
2f00
6600
f600
ENDCHAR
STARTCHAR Oacute
ENCODING 211
SWIDTH 722 0
DWIDTH 7 0
BBX 8 10 0 0
BITMAP
03
04
00
1c
76
66
c6
cc
dc
70
ENDCHAR
STARTCHAR Ocircumflex
ENCODING 212
SWIDTH 722 0
DWIDTH 7 0
BBX 7 10 0 0
BITMAP
08
14
00
1c
76
66
c6
cc
dc
70
ENDCHAR
STARTCHAR Odoubleacute
ENCODING 213
SWIDTH 722 0
DWIDTH 7 0
BBX 7 10 0 0
BITMAP
14
28
00
1c
76
66
c6
cc
dc
70
ENDCHAR
STARTCHAR Odiaeresis
ENCODING 214
SWIDTH 722 0
DWIDTH 7 0
BBX 7 10 0 0
BITMAP
14
14
00
1c
76
66
c6
cc
dc
70
ENDCHAR
STARTCHAR multiply
ENCODING 215
SWIDTH 570 0
DWIDTH 7 0
BBX 6 5 0 0
BITMAP
cc
78
30
78
cc
ENDCHAR
STARTCHAR Rcaron
ENCODING 216
SWIDTH 667 0
DWIDTH 7 0
BBX 8 10 -1 0
BITMAP
14
08
00
3e
1b
33
3e
6c
6c
f6
ENDCHAR
STARTCHAR Uring
ENCODING 217
SWIDTH 722 0
DWIDTH 8 0
BBX 9 11 0 0
BITMAP
0800
1400
0800
0000
7b80
3300
6600
6600
cc00
cc00
7800
ENDCHAR
STARTCHAR Uacute
ENCODING 218
SWIDTH 722 0
DWIDTH 8 0
BBX 9 10 0 0
BITMAP
0300
0400
0000
7b80
3300
6600
6600
cc00
cc00
7800
ENDCHAR
STARTCHAR Udoubleacute
ENCODING 219
SWIDTH 722 0
DWIDTH 8 0
BBX 9 10 0 0
BITMAP
0a00
1400
0000
7b80
3300
6600
6600
cc00
cc00
7800
ENDCHAR
STARTCHAR Udiaeresis
ENCODING 220
SWIDTH 722 0
DWIDTH 8 0
BBX 9 10 0 0
BITMAP
0a00
0a00
0000
7b80
3300
6600
6600
cc00
cc00
7800
ENDCHAR
STARTCHAR Yacute
ENCODING 221
SWIDTH 611 0
DWIDTH 6 0
BBX 8 10 -1 0
BITMAP
06
08
00
77
36
34
38
30
60
f0
ENDCHAR
STARTCHAR Tcedilla
ENCODING 222
SWIDTH 611 0
DWIDTH 6 0
BBX 7 10 0 -3
BITMAP
7e
da
18
30
30
60
f0
0c
24
18
ENDCHAR
STARTCHAR ssharp
ENCODING 223
SWIDTH 500 0
DWIDTH 6 0
BBX 7 10 -2 -3
BITMAP
0c
1a
1c
12
12
32
34
20
a0
c0
ENDCHAR
STARTCHAR racute
ENCODING 224
SWIDTH 389 0
DWIDTH 4 0
BBX 5 8 0 0
BITMAP
18
20
00
68
70
60
40
c0
ENDCHAR
STARTCHAR aacute
ENCODING 225
SWIDTH 500 0
DWIDTH 5 0
BBX 6 8 0 0
BITMAP
0c
10
00
38
68
d8
d0
78
ENDCHAR
STARTCHAR acircumflex
ENCODING 226
SWIDTH 500 0
DWIDTH 5 0
BBX 5 8 0 0
BITMAP
10
28
00
38
68
d8
d0
78
ENDCHAR
STARTCHAR abreve
ENCODING 227
SWIDTH 500 0
DWIDTH 5 0
BBX 5 8 0 0
BITMAP
50
70
00
38
68
c8
d0
78
ENDCHAR
STARTCHAR adiaeresis
ENCODING 228
SWIDTH 500 0
DWIDTH 5 0
BBX 5 8 0 0
BITMAP
28
28
00
38
68
d8
d0
78
ENDCHAR
STARTCHAR lacute
ENCODING 229
SWIDTH 278 0
DWIDTH 3 0
BBX 5 10 0 0
BITMAP
18
20
00
30
30
20
60
40
c0
e0
ENDCHAR
STARTCHAR cacute
ENCODING 230
SWIDTH 444 0
DWIDTH 5 0
BBX 5 8 0 0
BITMAP
18
20
00
30
68
c0
d0
60
ENDCHAR
STARTCHAR ccedilla
ENCODING 231
SWIDTH 444 0
DWIDTH 5 0
BBX 5 8 0 -3
BITMAP
30
68
c0
d0
60
30
90
60
ENDCHAR
STARTCHAR ccaron
ENCODING 232
SWIDTH 444 0
DWIDTH 5 0
BBX 5 8 0 0
BITMAP
50
20
00
30
68
c0
d0
60
ENDCHAR
STARTCHAR eacute
ENCODING 233
SWIDTH 444 0
DWIDTH 5 0
BBX 6 8 0 0
BITMAP
0c
10
00
38
48
f0
c8
70
ENDCHAR
STARTCHAR eogonek
ENCODING 234
SWIDTH 444 0
DWIDTH 5 0
BBX 5 8 0 -3
BITMAP
38
48
f0
c8
70
40
50
30
ENDCHAR
STARTCHAR ediaeresis
ENCODING 235
SWIDTH 444 0
DWIDTH 5 0
BBX 5 8 0 0
BITMAP
28
28
00
38
48
f0
c8
70
ENDCHAR
STARTCHAR ecaron
ENCODING 236
SWIDTH 444 0
DWIDTH 5 0
BBX 5 8 0 0
BITMAP
50
20
00
38
48
f0
c8
70
ENDCHAR
STARTCHAR iacute
ENCODING 237
SWIDTH 278 0
DWIDTH 3 0
BBX 4 8 0 0
BITMAP
30
40
00
e0
60
60
c0
e0
ENDCHAR
STARTCHAR icircumflex
ENCODING 238
SWIDTH 278 0
DWIDTH 3 0
BBX 3 8 0 0
BITMAP
40
a0
00
e0
60
60
c0
e0
ENDCHAR
STARTCHAR dcaron
ENCODING 239
SWIDTH 768 0
DWIDTH 8 0
BBX 9 8 0 0
BITMAP
0180
1c80
0d00
3800
6800
c800
d800
6800
ENDCHAR
STARTCHAR dstroke
ENCODING 240
SWIDTH 672 0
DWIDTH 7 0
BBX 8 7 0 0
BITMAP
1c
ff
38
68
c8
d8
68
ENDCHAR
STARTCHAR nacute
ENCODING 241
SWIDTH 556 0
DWIDTH 5 0
BBX 5 8 0 0
BITMAP
18
20
00
d8
78
48
d0
d8
ENDCHAR
STARTCHAR ncaron
ENCODING 242
SWIDTH 556 0
DWIDTH 5 0
BBX 5 8 0 0
BITMAP
50
20
00
d8
78
48
d0
d8
ENDCHAR
STARTCHAR oacute
ENCODING 243
SWIDTH 500 0
DWIDTH 5 0
BBX 5 8 0 0
BITMAP
18
20
00
30
58
d8
d0
60
ENDCHAR
STARTCHAR ocircumflex
ENCODING 244
SWIDTH 500 0
DWIDTH 5 0
BBX 5 8 0 0
BITMAP
10
28
00
30
58
d8
d0
60
ENDCHAR
STARTCHAR odoubleacute
ENCODING 245
SWIDTH 500 0
DWIDTH 5 0
BBX 5 8 0 0
BITMAP
28
50
00
30
48
d8
90
60
ENDCHAR
STARTCHAR odiaeresis
ENCODING 246
SWIDTH 500 0
DWIDTH 5 0
BBX 5 8 0 0
BITMAP
28
28
00
30
58
d8
d0
60
ENDCHAR
STARTCHAR division
ENCODING 247
SWIDTH 570 0
DWIDTH 7 0
BBX 5 5 1 0
BITMAP
20
00
f8
00
20
ENDCHAR
STARTCHAR rcaron
ENCODING 248
SWIDTH 389 0
DWIDTH 4 0
BBX 5 8 0 0
BITMAP
50
20
00
68
70
60
40
c0
ENDCHAR
STARTCHAR uring
ENCODING 249
SWIDTH 556 0
DWIDTH 5 0
BBX 5 9 0 0
BITMAP
20
50
20
00
e8
48
d0
d0
78
ENDCHAR
STARTCHAR uacute
ENCODING 250
SWIDTH 556 0
DWIDTH 5 0
BBX 5 8 0 0
BITMAP
18
20
00
e8
48
d0
f0
78
ENDCHAR
STARTCHAR udoubleacute
ENCODING 251
SWIDTH 556 0
DWIDTH 5 0
BBX 5 8 0 0
BITMAP
28
50
00
e8
48
d0
d0
78
ENDCHAR
STARTCHAR udiaeresis
ENCODING 252
SWIDTH 556 0
DWIDTH 5 0
BBX 5 8 0 0
BITMAP
50
50
00
e8
48
d0
f0
78
ENDCHAR
STARTCHAR yacute
ENCODING 253
SWIDTH 444 0
DWIDTH 5 0
BBX 6 10 0 -2
BITMAP
0c
10
00
e8
68
68
30
20
a0
c0
ENDCHAR
STARTCHAR tcedilla
ENCODING 254
SWIDTH 278 0
DWIDTH 4 0
BBX 5 9 0 -3
BITMAP
30
f8
60
c0
d0
60
18
48
30
ENDCHAR
STARTCHAR abovedot
ENCODING 255
SWIDTH 333 0
DWIDTH 3 0
BBX 1 2 1 6
BITMAP
80
80
ENDCHAR
ENDFONT
